<?xml version="1.0" standalone="no"?>

<?xml-stylesheet type="text/css" href="title.css"?>

<!DOCTYPE svg PUBLIC "-//W3C//DTD SVG 1.1//EN"
  "http://www.w3.org/Graphics/SVG/1.1/DTD/svg11.dtd">

<svg xmlns="http://www.w3.org/2000/svg" xmlns:xlink="http://www.w3.org/1999/xlink" _width="580.752" _height="84.528" viewBox="0 0 580.752 84.528">
<path d="M44.86 54.50Q44.86 57.38 43.70 59.80Q42.55 62.21 40.61 63.97Q38.66 65.74 36.07 66.71Q33.48 67.68 30.53 67.68L6.41 67.68L6.41 16.56L31.03 16.56Q33.70 16.56 35.86 17.71Q38.02 18.86 39.53 20.70Q41.04 22.54 41.87 24.88Q42.70 27.22 42.70 29.59Q42.70 33.48 40.75 36.68Q38.81 39.89 35.35 41.47Q39.74 42.77 42.30 46.30Q44.86 49.82 44.86 54.50M39.82 53.64Q39.82 51.77 39.17 50.00Q38.52 48.24 37.33 46.91Q36.14 45.58 34.52 44.75Q32.90 43.92 31.03 43.92L11.45 43.92L11.45 63.29L30.53 63.29Q32.47 63.29 34.16 62.50Q35.86 61.70 37.12 60.37Q38.38 59.04 39.10 57.28Q39.82 55.51 39.82 53.64M11.45 20.95L11.45 39.82L29.02 39.82Q30.89 39.82 32.51 39.02Q34.13 38.23 35.28 36.94Q36.43 35.64 37.08 33.95Q37.73 32.26 37.73 30.38Q37.73 28.44 37.12 26.71Q36.50 24.98 35.39 23.72Q34.27 22.46 32.76 21.71Q31.25 20.95 29.45 20.95L11.45 20.95ZM74.95 68.04Q69.62 68.04 65.20 65.84Q60.77 63.65 57.60 60.01Q54.43 56.38 52.70 51.70Q50.98 47.02 50.98 42.12Q50.98 37.01 52.81 32.33Q54.65 27.65 57.89 24.05Q61.13 20.45 65.52 18.32Q69.91 16.20 75.02 16.20Q80.35 16.20 84.78 18.47Q89.21 20.74 92.34 24.41Q95.47 28.08 97.20 32.72Q98.93 37.37 98.93 42.19Q98.93 47.30 97.09 51.98Q95.26 56.66 92.05 60.23Q88.85 63.79 84.46 65.92Q80.06 68.04 74.95 68.04M56.02 42.12Q56.02 46.30 57.38 50.15Q58.75 54.00 61.27 56.99Q63.79 59.98 67.25 61.74Q70.70 63.50 74.95 63.50Q79.27 63.50 82.80 61.63Q86.33 59.76 88.78 56.74Q91.22 53.71 92.56 49.90Q93.89 46.08 93.89 42.12Q93.89 37.94 92.48 34.09Q91.08 30.24 88.56 27.29Q86.04 24.34 82.58 22.57Q79.13 20.81 74.95 20.81Q70.63 20.81 67.10 22.64Q63.58 24.48 61.13 27.50Q58.68 30.53 57.35 34.34Q56.02 38.16 56.02 42.12ZM145.37 60.19Q138.24 68.04 128.95 68.04Q123.77 68.04 119.41 65.81Q115.06 63.58 111.85 59.90Q108.65 56.23 106.85 51.59Q105.05 46.94 105.05 42.05Q105.05 36.94 106.81 32.26Q108.58 27.58 111.74 24.01Q114.91 20.45 119.23 18.32Q123.55 16.20 128.66 16.20Q132.41 16.20 135.50 17.03Q138.60 17.86 141.01 19.33Q143.42 20.81 145.19 22.86Q146.95 24.91 148.18 27.36L144.29 29.95Q141.77 25.20 137.74 22.97Q133.70 20.74 128.59 20.74Q124.34 20.74 120.92 22.54Q117.50 24.34 115.09 27.32Q112.68 30.31 111.38 34.16Q110.09 38.02 110.09 42.12Q110.09 46.44 111.56 50.33Q113.04 54.22 115.63 57.13Q118.22 60.05 121.72 61.78Q125.21 63.50 129.31 63.50Q133.70 63.50 137.70 61.45Q141.70 59.40 145.37 54.94L145.37 46.44L133.99 46.44L133.99 42.55L149.62 42.55L149.62 67.68L145.37 67.68L145.37 60.19ZM159.98 67.68L159.98 16.56L177.34 16.56Q183.46 16.56 188.03 18.58Q192.60 20.59 195.66 24.05Q198.72 27.50 200.27 32.15Q201.82 36.79 201.82 42.05Q201.82 47.88 200.09 52.60Q198.36 57.31 195.16 60.66Q191.95 64.01 187.45 65.84Q182.95 67.68 177.34 67.68L159.98 67.68M196.78 42.05Q196.78 37.44 195.48 33.59Q194.18 29.74 191.70 26.93Q189.22 24.12 185.62 22.57Q182.02 21.02 177.34 21.02L165.02 21.02L165.02 63.22L177.34 63.22Q182.09 63.22 185.72 61.60Q189.36 59.98 191.81 57.13Q194.26 54.29 195.52 50.44Q196.78 46.58 196.78 42.05ZM227.30 16.56L231.55 16.56L252.79 67.68L247.46 67.68L240.84 51.70L217.87 51.70L211.32 67.68L205.92 67.68L227.30 16.56M239.69 47.74L229.39 22.46L218.95 47.74L239.69 47.74ZM265.18 25.92L265.18 67.68L260.14 67.68L260.14 16.56L264.02 16.56L297.86 59.11L297.86 16.63L302.90 16.63L302.90 67.68L298.51 67.68L265.18 25.92ZM372.53 54.50Q372.53 57.38 371.38 59.80Q370.22 62.21 368.28 63.97Q366.34 65.74 363.74 66.71Q361.15 67.68 358.20 67.68L334.08 67.68L334.08 16.56L358.70 16.56Q361.37 16.56 363.53 17.71Q365.69 18.86 367.20 20.70Q368.71 22.54 369.54 24.88Q370.37 27.22 370.37 29.59Q370.37 33.48 368.42 36.68Q366.48 39.89 363.02 41.47Q367.42 42.77 369.97 46.30Q372.53 49.82 372.53 54.50M367.49 53.64Q367.49 51.77 366.84 50.00Q366.19 48.24 365.00 46.91Q363.82 45.58 362.20 44.75Q360.58 43.92 358.70 43.92L339.12 43.92L339.12 63.29L358.20 63.29Q360.14 63.29 361.84 62.50Q363.53 61.70 364.79 60.37Q366.05 59.04 366.77 57.28Q367.49 55.51 367.49 53.64M339.12 20.95L339.12 39.82L356.69 39.82Q358.56 39.82 360.18 39.02Q361.80 38.23 362.95 36.94Q364.10 35.64 364.75 33.95Q365.40 32.26 365.40 30.38Q365.40 28.44 364.79 26.71Q364.18 24.98 363.06 23.72Q361.94 22.46 360.43 21.71Q358.92 20.95 357.12 20.95L339.12 20.95ZM402.77 63.50Q407.59 63.50 410.80 61.67Q414 59.83 415.91 56.84Q417.82 53.86 418.57 50.04Q419.33 46.22 419.33 42.34L419.33 16.56L424.37 16.56L424.37 42.34Q424.37 47.52 423.22 52.16Q422.06 56.81 419.51 60.34Q416.95 63.86 412.85 65.95Q408.74 68.04 402.84 68.04Q396.79 68.04 392.65 65.84Q388.51 63.65 385.99 60.05Q383.47 56.45 382.39 51.84Q381.31 47.23 381.31 42.34L381.31 16.56L386.28 16.56L386.28 42.34Q386.28 46.37 387.07 50.18Q387.86 54.00 389.77 56.95Q391.68 59.90 394.85 61.70Q398.02 63.50 402.77 63.50ZM433.01 41.76Q433.01 37.15 434.63 32.58Q436.25 28.01 439.34 24.41Q442.44 20.81 446.98 18.54Q451.51 16.27 457.27 16.27Q464.11 16.27 468.97 19.37Q473.83 22.46 476.14 27.43L472.18 29.88Q470.95 27.36 469.19 25.63Q467.42 23.90 465.41 22.82Q463.39 21.74 461.23 21.28Q459.07 20.81 456.98 20.81Q452.38 20.81 448.85 22.68Q445.32 24.55 442.91 27.58Q440.50 30.60 439.27 34.38Q438.05 38.16 438.05 42.05Q438.05 46.30 439.52 50.18Q441.00 54.07 443.56 57.06Q446.11 60.05 449.60 61.81Q453.10 63.58 457.20 63.58Q459.36 63.58 461.63 63.04Q463.90 62.50 466.02 61.31Q468.14 60.12 469.94 58.36Q471.74 56.59 472.97 54.07L477.14 56.23Q475.92 59.11 473.69 61.31Q471.46 63.50 468.72 65.02Q465.98 66.53 462.92 67.32Q459.86 68.11 456.91 68.11Q451.66 68.11 447.26 65.81Q442.87 63.50 439.70 59.80Q436.54 56.09 434.77 51.37Q433.01 46.66 433.01 41.76ZM506.52 63.50Q511.34 63.50 514.55 61.67Q517.75 59.83 519.66 56.84Q521.57 53.86 522.32 50.04Q523.08 46.22 523.08 42.34L523.08 16.56L528.12 16.56L528.12 42.34Q528.12 47.52 526.97 52.16Q525.82 56.81 523.26 60.34Q520.70 63.86 516.60 65.95Q512.50 68.04 506.59 68.04Q500.54 68.04 496.40 65.84Q492.26 63.65 489.74 60.05Q487.22 56.45 486.14 51.84Q485.06 47.23 485.06 42.34L485.06 16.56L490.03 16.56L490.03 42.34Q490.03 46.37 490.82 50.18Q491.62 54.00 493.52 56.95Q495.43 59.90 498.60 61.70Q501.77 63.50 506.52 63.50ZM540.14 67.68L540.14 16.56L561.74 16.56Q565.06 16.56 567.83 17.96Q570.60 19.37 572.62 21.64Q574.63 23.90 575.75 26.78Q576.86 29.66 576.86 32.62Q576.86 35.42 576.04 37.98Q575.21 40.54 573.73 42.59Q572.26 44.64 570.17 46.04Q568.08 47.45 565.49 47.95L578.02 67.68L572.33 67.68L560.30 48.82L545.18 48.82L545.18 67.68L540.14 67.68M545.18 44.35L561.89 44.35Q564.12 44.35 565.96 43.38Q567.79 42.41 569.09 40.75Q570.38 39.10 571.10 37.01Q571.82 34.92 571.82 32.62Q571.82 30.31 571.00 28.19Q570.17 26.06 568.76 24.48Q567.36 22.90 565.45 21.96Q563.54 21.02 561.46 21.02L545.18 21.02L545.18 44.35Z"></path>
</svg>